<svg width="433" height="439" viewBox="0 0 433 439" fill="none" xmlns="http://www.w3.org/2000/svg">
<circle opacity="0.15" cx="333" cy="270" r="15" fill="#B99653"/>
<circle cx="333" cy="270" r="7" fill="#B99653"/>
<circle opacity="0.15" cx="98" cy="169" r="15" fill="#B99653"/>
<circle cx="98" cy="169" r="7" fill="#B99653"/>
<circle opacity="0.15" cx="84" cy="351" r="15" fill="#B99653"/>
<circle cx="84" cy="351" r="7" fill="#B99653"/>
<circle opacity="0.15" cx="306" cy="20" r="15" fill="#B99653"/>
<circle cx="306" cy="20" r="7" fill="#B99653"/>
<path d="M431.269 208.798C427.644 153.707 416.74 119.306 371.135 69.5306C334.444 29.5413 296.663 8.96061 235.575 2.25484C131.663 -9.13953 33.0116 58.2453 8.01483 156.351C-3.32501 200.811 -1.36239 259.637 17.1739 302.352C37.2781 349.478 72.8572 388.336 118.033 412.506C210.715 463.509 325.749 433.087 387.9 351.827C418.724 310.728 434.114 260.099 431.378 208.798C430.124 191.543 431.46 211.933 431.269 208.798Z" stroke="#B99653" stroke-width="2" stroke-linejoin="round"/>
<path d="M167.1 98.6434L83.6047 85.8861L98.0249 169.299L166.118 99.9791L167.1 98.6434Z" stroke="#B99653" stroke-width="2" stroke-linejoin="round"/>
<path d="M15.5928 134.68L83.6046 85.8861L98.0247 169.299L28.1048 218.666L15.5928 134.68Z" stroke="#B99653" stroke-width="2" stroke-linejoin="round"/>
<path d="M127.656 20.0551L83.6047 85.8861L167.1 98.6435L216.057 30.141L127.656 20.0551Z" stroke="#B99653" stroke-width="2" stroke-linejoin="round"/>
<path d="M97.9157 169.381L28.1865 218.611H28.1047L28.132 218.639L28.1047 218.666H28.1865L97.9157 267.896L98.0247 267.978V218.666V218.611V169.299L97.9157 169.381Z" stroke="#B99653" stroke-width="2" stroke-linejoin="round"/>
<path d="M167.1 338.634L83.6047 351.391L98.0249 267.978L167.1 338.634Z" stroke="#B99653" stroke-width="2" stroke-linejoin="round"/>
<path d="M17.6372 301.97L83.6046 351.391L98.0247 267.978L28.1048 218.611L17.6372 301.97Z" stroke="#B99653" stroke-width="2" stroke-linejoin="round"/>
<path d="M129.1 417.958L83.6047 351.391L167.1 338.634L215.867 406.836L129.1 417.958Z" stroke="#B99653" stroke-width="2" stroke-linejoin="round"/>
<path d="M264.497 98.6434L215.839 30.359V30.25L215.812 30.3045L215.757 30.25V30.359L167.1 98.6434H264.497Z" stroke="#B99653" stroke-width="2" stroke-linejoin="round"/>
<path d="M264.497 98.6434L347.992 85.8861L333.599 169.299L265.478 99.9791L264.497 98.6434Z" stroke="#B99653" stroke-width="2" stroke-linejoin="round"/>
<path d="M416.004 134.68L347.992 85.8861L333.599 169.299L403.519 218.666L416.004 134.68Z" stroke="#B99653" stroke-width="2" stroke-linejoin="round"/>
<path d="M303.969 20.0551L347.992 85.8861L264.497 98.6435L215.54 30.141L303.969 20.0551Z" stroke="#B99653" stroke-width="2" stroke-linejoin="round"/>
<path d="M215.948 406.591L264.497 338.634H167.1L215.676 406.591L215.648 406.973L215.812 406.782L215.948 406.973V406.591Z" stroke="#B99653" stroke-width="2" stroke-linejoin="round"/>
<path d="M333.681 169.381L403.41 218.611H403.519L403.465 218.639L403.519 218.666H403.41L333.681 267.896L333.599 267.978V218.666V218.611V169.299L333.681 169.381Z" stroke="#B99653" stroke-width="2" stroke-linejoin="round"/>
<path d="M264.497 338.634L347.992 351.391L333.599 267.978L264.497 338.634Z" stroke="#B99653" stroke-width="2" stroke-linejoin="round"/>
<path d="M265.506 100.006L264.497 98.6434H167.127L166.118 100.006L97.9702 169.299V268.005L167.072 338.634H264.442L333.545 268.005V169.299L265.506 100.006Z" stroke="#B99653" stroke-width="2" stroke-linejoin="round"/>
<path d="M413.987 301.97L347.992 351.391L333.599 267.978L403.519 218.611L413.987 301.97Z" stroke="#B99653" stroke-width="2" stroke-linejoin="round"/>
<path d="M302.496 417.958L347.992 351.391L264.497 338.634L215.73 406.836L302.496 417.958Z" stroke="#B99653" stroke-width="2" stroke-linejoin="round"/>
<path d="M141 171.08L148.566 166.375L141 162L141 171.08Z" fill="#B99653"/>
<path d="M157.194 171.364L150.424 175.279L144.125 171.361L150.419 167.446L157.194 171.364Z" fill="#B99653"/>
<path d="M141 171.641L148.571 176.35L141 180.728V171.641Z" fill="#B99653"/>
<path d="M142.782 230.799V243.553H141V226.187H141.443L148.509 235.237L155.575 226.187H156.021V243.553H154.239V230.795L148.509 238.134L142.782 230.799Z" fill="#B99653"/>
<path d="M191.211 226.187H178.535V243.553H191.211V241.77H180.318V235.762H188.397V233.978H180.318V227.97H191.211V226.187Z" fill="#B99653"/>
<path fill-rule="evenodd" clip-rule="evenodd" d="M213.725 226.187H220.069C224.861 226.187 228.746 230.074 228.746 234.87C228.746 239.666 224.861 243.553 220.069 243.553H213.725V226.187ZM220.069 227.97H215.507V241.77H220.069C223.877 241.77 226.964 238.681 226.964 234.87C226.964 231.059 223.877 227.97 220.069 227.97Z" fill="#B99653"/>
<path d="M253.043 226.187H251.26V243.553H253.043V226.187Z" fill="#B99653"/>
<path fill-rule="evenodd" clip-rule="evenodd" d="M279.725 237.991L277.479 243.553H275.557L282.568 226.187H283.052L290.063 243.553H288.141L285.895 237.991H279.725ZM285.175 236.208L282.81 230.35L280.445 236.208H285.175Z" fill="#B99653"/>
<path d="M141 194.774H142.782V212.141H141V194.774Z" fill="#B99653"/>
<path d="M156.021 194.774H153.559L143.72 203.457L153.559 212.141H156.021L146.183 203.457L156.021 194.774Z" fill="#B99653"/>
<path d="M174.78 194.774H187.456V196.558H176.562V202.565H184.642V204.349H176.562V210.357H187.456V212.141H174.78V194.774Z" fill="#B99653"/>
<path fill-rule="evenodd" clip-rule="evenodd" d="M213.667 194.774H207.323V212.141H213.667C218.459 212.141 222.344 208.253 222.344 203.457C222.344 198.662 218.459 194.774 213.667 194.774ZM209.105 196.558H213.667C217.474 196.558 220.561 199.647 220.561 203.457C220.561 207.268 217.474 210.357 213.667 210.357H209.105V196.558Z" fill="#B99653"/>
<path fill-rule="evenodd" clip-rule="evenodd" d="M282.323 212.141C287.115 212.141 291 208.253 291 203.457C291 198.662 287.115 194.774 282.323 194.774C277.53 194.774 273.645 198.662 273.645 203.457C273.645 208.253 277.53 212.141 282.323 212.141ZM282.323 210.357C286.131 210.357 289.218 207.268 289.218 203.457C289.218 199.647 286.131 196.558 282.323 196.558C278.515 196.558 275.428 199.647 275.428 203.457C275.428 207.268 278.515 210.357 282.323 210.357Z" fill="#B99653"/>
<path fill-rule="evenodd" clip-rule="evenodd" d="M247.652 212.141C252.444 212.141 256.329 208.253 256.329 203.457C256.329 198.662 252.444 194.774 247.652 194.774C242.859 194.774 238.974 198.662 238.974 203.457C238.974 208.253 242.859 212.141 247.652 212.141ZM247.652 210.357C251.46 210.357 254.547 207.268 254.547 203.457C254.547 199.647 251.46 196.558 247.652 196.558C243.844 196.558 240.757 199.647 240.757 203.457C240.757 207.268 243.844 210.357 247.652 210.357Z" fill="#B99653"/>
</svg>
