<svg width="360" height="18" viewBox="0 0 360 18" fill="none" xmlns="http://www.w3.org/2000/svg">
<g clip-path="url(#clip0_271_3525)">
<path d="M0.789062 8.71137L8.19021 4.25343L0.789064 0.108887L0.789062 8.71137Z" fill="#101010"/>
<path d="M16.6301 8.97992L10.0075 12.6884L3.8457 8.97703L10.0025 5.26855L16.6301 8.97992Z" fill="#101010"/>
<path d="M0.789062 9.24268L8.19519 13.7036L0.789062 17.8509V9.24268Z" fill="#101010"/>
<path d="M215.912 5.76822V17.8512H214.169V1.39844H214.602L221.515 9.97247L228.427 1.39844H228.863V17.8512H227.12V5.76451L221.515 12.7171L215.912 5.76822Z" fill="#101010"/>
<path d="M263.287 1.39844H250.888V17.8512H263.287V16.1614H252.631V10.4697H260.534V8.77992H252.631V3.08817H263.287V1.39844Z" fill="#101010"/>
<path fill-rule="evenodd" clip-rule="evenodd" d="M285.312 1.39844H291.518C296.205 1.39844 300.006 5.08149 300.006 9.62479C300.006 14.1681 296.205 17.8512 291.518 17.8512H285.312V1.39844ZM291.518 3.08817H287.056V16.1614H291.518C295.243 16.1614 298.263 13.2349 298.263 9.62479C298.263 6.01471 295.243 3.08817 291.518 3.08817Z" fill="#101010"/>
<path d="M323.775 1.39844H322.031V17.8512H323.775V1.39844Z" fill="#101010"/>
<path fill-rule="evenodd" clip-rule="evenodd" d="M349.877 12.5818L347.68 17.8512H345.8L352.658 1.39844H353.132L359.99 17.8512H358.11L355.913 12.5818H349.877ZM355.209 10.8921L352.895 5.34225L350.582 10.8921H355.209Z" fill="#101010"/>
<path d="M37.165 1.39844H38.9087V17.8512H37.165V1.39844Z" fill="#101010"/>
<path d="M51.8594 1.39844H49.4505L39.8262 9.62479L49.4505 17.8512H51.8594L42.2351 9.62479L51.8594 1.39844Z" fill="#101010"/>
<path d="M70.2109 1.39844H82.6113V3.08817H71.9546V8.77993H79.8583V10.4697H71.9546V16.1614H82.6113V17.8512H70.2109V1.39844Z" fill="#101010"/>
<path fill-rule="evenodd" clip-rule="evenodd" d="M108.251 1.39844H102.046V17.8512H108.251C112.94 17.8512 116.74 14.1681 116.74 9.62479C116.74 5.0815 112.94 1.39844 108.251 1.39844ZM103.789 3.08817H108.251C111.976 3.08817 114.996 6.01472 114.996 9.62479C114.996 13.2349 111.976 16.1614 108.251 16.1614H103.789V3.08817Z" fill="#101010"/>
<path fill-rule="evenodd" clip-rule="evenodd" d="M175.416 17.8512C180.104 17.8512 183.904 14.1681 183.904 9.62479C183.904 5.08151 180.104 1.39844 175.416 1.39844C170.728 1.39844 166.928 5.08151 166.928 9.62479C166.928 14.1681 170.728 17.8512 175.416 17.8512ZM175.416 16.1614C179.141 16.1614 182.161 13.2348 182.161 9.62479C182.161 6.01473 179.141 3.08817 175.416 3.08817C171.691 3.08817 168.671 6.01473 168.671 9.62479C168.671 13.2348 171.691 16.1614 175.416 16.1614Z" fill="#101010"/>
<path fill-rule="evenodd" clip-rule="evenodd" d="M141.498 17.8512C146.186 17.8512 149.987 14.1681 149.987 9.62479C149.987 5.08151 146.186 1.39844 141.498 1.39844C136.81 1.39844 133.009 5.08151 133.009 9.62479C133.009 14.1681 136.81 17.8512 141.498 17.8512ZM141.498 16.1614C145.223 16.1614 148.243 13.2348 148.243 9.62479C148.243 6.01473 145.223 3.08817 141.498 3.08817C137.773 3.08817 134.753 6.01473 134.753 9.62479C134.753 13.2348 137.773 16.1614 141.498 16.1614Z" fill="#101010"/>
</g>
<defs>
<clipPath id="clip0_271_3525">
<rect width="360" height="18" fill="white"/>
</clipPath>
</defs>
</svg>
