<svg width="20" height="20" viewBox="0 0 20 20" fill="none" xmlns="http://www.w3.org/2000/svg">
<path fill-rule="evenodd" clip-rule="evenodd" d="M11.8747 4.58333C11.8747 3.08756 13.0872 1.875 14.583 1.875C16.0788 1.875 17.2913 3.08756 17.2913 4.58333C17.2913 6.0791 16.0788 7.29167 14.583 7.29167C13.0872 7.29167 11.8747 6.0791 11.8747 4.58333ZM14.583 3.125C13.7776 3.125 13.1247 3.77792 13.1247 4.58333C13.1247 5.38875 13.7776 6.04167 14.583 6.04167C15.3884 6.04167 16.0413 5.38875 16.0413 4.58333C16.0413 3.77792 15.3884 3.125 14.583 3.125Z" fill="#101010"/>
<path fill-rule="evenodd" clip-rule="evenodd" d="M2.70801 10C2.70801 8.50423 3.92057 7.29167 5.41634 7.29167C6.91211 7.29167 8.12467 8.50423 8.12467 10C8.12467 11.4958 6.91211 12.7083 5.41634 12.7083C3.92057 12.7083 2.70801 11.4958 2.70801 10ZM5.41634 8.54167C4.61093 8.54167 3.95801 9.19458 3.95801 10C3.95801 10.8054 4.61093 11.4583 5.41634 11.4583C6.22176 11.4583 6.87467 10.8054 6.87467 10C6.87467 9.19458 6.22176 8.54167 5.41634 8.54167Z" fill="#101010"/>
<path fill-rule="evenodd" clip-rule="evenodd" d="M13.0342 5.33219C13.2131 5.62741 13.1188 6.01173 12.8235 6.19059L7.54806 9.38679C7.25284 9.56565 6.86852 9.47133 6.68966 9.17611C6.51079 8.88088 6.60512 8.49656 6.90034 8.3177L12.1758 5.1215C12.471 4.94264 12.8554 5.03696 13.0342 5.33219Z" fill="#101010"/>
<path fill-rule="evenodd" clip-rule="evenodd" d="M6.68613 10.7503C6.86173 10.4532 7.24499 10.3546 7.54216 10.5302L13.1007 13.8148C13.3978 13.9904 13.4964 14.3736 13.3208 14.6708C13.1452 14.968 12.7619 15.0665 12.4648 14.8909L6.90625 11.6064C6.60908 11.4308 6.51052 11.0475 6.68613 10.7503Z" fill="#101010"/>
<path fill-rule="evenodd" clip-rule="evenodd" d="M11.8747 15.4167C11.8747 16.9124 13.0872 18.125 14.583 18.125C16.0788 18.125 17.2913 16.9124 17.2913 15.4167C17.2913 13.9209 16.0788 12.7083 14.583 12.7083C13.0872 12.7083 11.8747 13.9209 11.8747 15.4167ZM14.583 16.875C13.7776 16.875 13.1247 16.2221 13.1247 15.4167C13.1247 14.6113 13.7776 13.9583 14.583 13.9583C15.3884 13.9583 16.0413 14.6113 16.0413 15.4167C16.0413 16.2221 15.3884 16.875 14.583 16.875Z" fill="#101010"/>
</svg>
