<svg width="368" height="19" viewBox="0 0 368 19" fill="none" xmlns="http://www.w3.org/2000/svg">
<path d="M0.806295 9.19527L8.37191 4.48966L0.806297 0.114866L0.806295 9.19527Z" fill="#B99653"/>
<path d="M17 9.47884L10.2302 13.3934L3.93146 9.47579L10.2251 5.56129L17 9.47884Z" fill="#B99653"/>
<path d="M0.806295 9.7563L8.377 14.4651L0.806295 18.8428V9.7563Z" fill="#B99653"/>
<path d="M220.71 6.08868V18.8429H218.928V1.47613H219.371L226.437 10.5265L233.503 1.47613H233.949V18.8429H232.167V6.08476L226.437 13.4236L220.71 6.08868Z" fill="#B99653"/>
<path d="M269.138 1.47613H256.463V18.8429H269.138V17.0593H258.245V11.0513H266.324V9.2677H258.245V3.25974H269.138V1.47613Z" fill="#B99653"/>
<path fill-rule="evenodd" clip-rule="evenodd" d="M291.652 1.47613H297.996C302.788 1.47613 306.673 5.3638 306.673 10.1595C306.673 14.9552 302.788 18.8429 297.996 18.8429H291.652V1.47613ZM297.996 3.25974H293.435V17.0593H297.996C301.804 17.0593 304.891 13.9702 304.891 10.1595C304.891 6.34886 301.804 3.25974 297.996 3.25974Z" fill="#B99653"/>
<path d="M330.97 1.47613H329.187V18.8429H330.97V1.47613Z" fill="#B99653"/>
<path fill-rule="evenodd" clip-rule="evenodd" d="M357.652 13.2808L355.406 18.8429H353.484L360.495 1.47613H360.979L367.99 18.8429H366.068L363.822 13.2808H357.652ZM363.102 11.4972L360.737 5.63904L358.372 11.4972H363.102Z" fill="#B99653"/>
<path d="M37.9909 1.47613H39.7733V18.8429H37.9909V1.47613Z" fill="#B99653"/>
<path d="M53.0119 1.47613H50.5495L40.7113 10.1595L50.5495 18.8429H53.0119L43.1738 10.1595L53.0119 1.47613Z" fill="#B99653"/>
<path d="M71.7707 1.47613H84.4466V3.25974H73.5531V9.26771H81.6324V11.0513H73.5531V17.0593H84.4466V18.8429H71.7707V1.47613Z" fill="#B99653"/>
<path fill-rule="evenodd" clip-rule="evenodd" d="M110.657 1.47613H104.314V18.8429H110.657C115.45 18.8429 119.335 14.9552 119.335 10.1595C119.335 5.36381 115.45 1.47613 110.657 1.47613ZM106.096 3.25974H110.657C114.465 3.25974 117.552 6.34887 117.552 10.1595C117.552 13.9702 114.465 17.0593 110.657 17.0593H106.096V3.25974Z" fill="#B99653"/>
<path fill-rule="evenodd" clip-rule="evenodd" d="M179.314 18.8429C184.106 18.8429 187.991 14.9552 187.991 10.1595C187.991 5.36382 184.106 1.47613 179.314 1.47613C174.522 1.47613 170.637 5.36382 170.637 10.1595C170.637 14.9552 174.522 18.8429 179.314 18.8429ZM179.314 17.0593C183.122 17.0593 186.209 13.9701 186.209 10.1595C186.209 6.34888 183.122 3.25974 179.314 3.25974C175.506 3.25974 172.419 6.34888 172.419 10.1595C172.419 13.9701 175.506 17.0593 179.314 17.0593Z" fill="#B99653"/>
<path fill-rule="evenodd" clip-rule="evenodd" d="M144.643 18.8429C149.435 18.8429 153.32 14.9552 153.32 10.1595C153.32 5.36382 149.435 1.47613 144.643 1.47613C139.851 1.47613 135.965 5.36382 135.965 10.1595C135.965 14.9552 139.851 18.8429 144.643 18.8429ZM144.643 17.0593C148.451 17.0593 151.538 13.9701 151.538 10.1595C151.538 6.34888 148.451 3.25974 144.643 3.25974C140.835 3.25974 137.748 6.34888 137.748 10.1595C137.748 13.9701 140.835 17.0593 144.643 17.0593Z" fill="#B99653"/>
</svg>
